<svg xmlns="http://www.w3.org/2000/svg" viewBox="0 0 400 400" width="400" height="400">
  <title>Boulder Slate — ComTek Atomic Clock theme (Mondaine/SBB-inspired)</title>
  <rect width="400" height="400" fill="#f5f5f5"/>
  <g transform="translate(200,200)">
    <circle r="174" fill="#0a0a0a"/>
    <circle r="166" fill="#ffffff"/>
    <!-- 60 minute ticks -->
    <g stroke="#0a0a0a" stroke-width="2" stroke-linecap="butt">
      <line x1="0" y1="-160" x2="0" y2="-152" transform="rotate(6)"/>
      <line x1="0" y1="-160" x2="0" y2="-152" transform="rotate(12)"/>
      <line x1="0" y1="-160" x2="0" y2="-152" transform="rotate(18)"/>
      <line x1="0" y1="-160" x2="0" y2="-152" transform="rotate(24)"/>
      <line x1="0" y1="-160" x2="0" y2="-152" transform="rotate(36)"/>
      <line x1="0" y1="-160" x2="0" y2="-152" transform="rotate(42)"/>
      <line x1="0" y1="-160" x2="0" y2="-152" transform="rotate(48)"/>
      <line x1="0" y1="-160" x2="0" y2="-152" transform="rotate(54)"/>
      <line x1="0" y1="-160" x2="0" y2="-152" transform="rotate(66)"/>
      <line x1="0" y1="-160" x2="0" y2="-152" transform="rotate(72)"/>
      <line x1="0" y1="-160" x2="0" y2="-152" transform="rotate(78)"/>
      <line x1="0" y1="-160" x2="0" y2="-152" transform="rotate(84)"/>
      <line x1="0" y1="-160" x2="0" y2="-152" transform="rotate(96)"/>
      <line x1="0" y1="-160" x2="0" y2="-152" transform="rotate(102)"/>
      <line x1="0" y1="-160" x2="0" y2="-152" transform="rotate(108)"/>
      <line x1="0" y1="-160" x2="0" y2="-152" transform="rotate(114)"/>
      <line x1="0" y1="-160" x2="0" y2="-152" transform="rotate(126)"/>
      <line x1="0" y1="-160" x2="0" y2="-152" transform="rotate(132)"/>
      <line x1="0" y1="-160" x2="0" y2="-152" transform="rotate(138)"/>
      <line x1="0" y1="-160" x2="0" y2="-152" transform="rotate(144)"/>
      <line x1="0" y1="-160" x2="0" y2="-152" transform="rotate(156)"/>
      <line x1="0" y1="-160" x2="0" y2="-152" transform="rotate(162)"/>
      <line x1="0" y1="-160" x2="0" y2="-152" transform="rotate(168)"/>
      <line x1="0" y1="-160" x2="0" y2="-152" transform="rotate(174)"/>
      <line x1="0" y1="-160" x2="0" y2="-152" transform="rotate(186)"/>
      <line x1="0" y1="-160" x2="0" y2="-152" transform="rotate(192)"/>
      <line x1="0" y1="-160" x2="0" y2="-152" transform="rotate(198)"/>
      <line x1="0" y1="-160" x2="0" y2="-152" transform="rotate(204)"/>
      <line x1="0" y1="-160" x2="0" y2="-152" transform="rotate(216)"/>
      <line x1="0" y1="-160" x2="0" y2="-152" transform="rotate(222)"/>
      <line x1="0" y1="-160" x2="0" y2="-152" transform="rotate(228)"/>
      <line x1="0" y1="-160" x2="0" y2="-152" transform="rotate(234)"/>
      <line x1="0" y1="-160" x2="0" y2="-152" transform="rotate(246)"/>
      <line x1="0" y1="-160" x2="0" y2="-152" transform="rotate(252)"/>
      <line x1="0" y1="-160" x2="0" y2="-152" transform="rotate(258)"/>
      <line x1="0" y1="-160" x2="0" y2="-152" transform="rotate(264)"/>
      <line x1="0" y1="-160" x2="0" y2="-152" transform="rotate(276)"/>
      <line x1="0" y1="-160" x2="0" y2="-152" transform="rotate(282)"/>
      <line x1="0" y1="-160" x2="0" y2="-152" transform="rotate(288)"/>
      <line x1="0" y1="-160" x2="0" y2="-152" transform="rotate(294)"/>
      <line x1="0" y1="-160" x2="0" y2="-152" transform="rotate(306)"/>
      <line x1="0" y1="-160" x2="0" y2="-152" transform="rotate(312)"/>
      <line x1="0" y1="-160" x2="0" y2="-152" transform="rotate(318)"/>
      <line x1="0" y1="-160" x2="0" y2="-152" transform="rotate(324)"/>
      <line x1="0" y1="-160" x2="0" y2="-152" transform="rotate(336)"/>
      <line x1="0" y1="-160" x2="0" y2="-152" transform="rotate(342)"/>
      <line x1="0" y1="-160" x2="0" y2="-152" transform="rotate(348)"/>
      <line x1="0" y1="-160" x2="0" y2="-152" transform="rotate(354)"/>
    </g>
    <!-- 12 hour markers (thicker, longer) -->
    <g stroke="#0a0a0a" stroke-width="6" stroke-linecap="butt">
      <line x1="0" y1="-160" x2="0" y2="-138" transform="rotate(0)"/>
      <line x1="0" y1="-160" x2="0" y2="-138" transform="rotate(30)"/>
      <line x1="0" y1="-160" x2="0" y2="-138" transform="rotate(60)"/>
      <line x1="0" y1="-160" x2="0" y2="-138" transform="rotate(90)"/>
      <line x1="0" y1="-160" x2="0" y2="-138" transform="rotate(120)"/>
      <line x1="0" y1="-160" x2="0" y2="-138" transform="rotate(150)"/>
      <line x1="0" y1="-160" x2="0" y2="-138" transform="rotate(180)"/>
      <line x1="0" y1="-160" x2="0" y2="-138" transform="rotate(210)"/>
      <line x1="0" y1="-160" x2="0" y2="-138" transform="rotate(240)"/>
      <line x1="0" y1="-160" x2="0" y2="-138" transform="rotate(270)"/>
      <line x1="0" y1="-160" x2="0" y2="-138" transform="rotate(300)"/>
      <line x1="0" y1="-160" x2="0" y2="-138" transform="rotate(330)"/>
    </g>
    <!-- hour hand: solid black baton -->
    <rect x="-5" y="-100" width="10" height="125" fill="#0a0a0a" transform="rotate(304.35)"/>
    <!-- minute hand: longer thinner black baton -->
    <rect x="-3.5" y="-138" width="7" height="160" fill="#0a0a0a" transform="rotate(52.2)"/>
    <!-- second hand: red rod with red disc at the tip (SBB stop signal) -->
    <g transform="rotate(252)">
      <line x1="0" y1="22" x2="0" y2="-118" stroke="#e3001b" stroke-width="2.5" stroke-linecap="butt"/>
      <circle cx="0" cy="-128" r="14" fill="#e3001b"/>
    </g>
    <!-- center pin -->
    <circle r="5" fill="#0a0a0a"/>
    <!-- minimal digital readout below center -->
    <text x="0" y="80" text-anchor="middle" font-family="'Helvetica Neue', 'Segoe UI', Arial, sans-serif" font-size="14" font-weight="500" fill="#0a0a0a" letter-spacing="2">10 : 08 : 42</text>
  </g>
</svg>
